Normalized EMG Linear Envelopes
nRows=237
nColumns=4

endheader
time	 med_gas_r	  soleus_r	 tib_ant_r	
3.42619	  0.087324	  0.112000	  0.051858	
3.45946	  0.089803	  0.110625	  0.051098	
3.49272	  0.091992	  0.109418	  0.050513	
3.52598	  0.093650	  0.108258	  0.050218	
3.55925	  0.094731	  0.107149	  0.050370	
3.59251	  0.095312	  0.106269	  0.051048	
3.62578	  0.095432	  0.105822	  0.052119	
3.65904	  0.095005	  0.105769	  0.053244	
3.6923	  0.093896	  0.105744	  0.054055	
3.72557	  0.092069	  0.105310	  0.054340	
3.75883	  0.089689	  0.104335	  0.054076	
3.7921	  0.087104	  0.103157	  0.053330	
3.82536	  0.084736	  0.102390	  0.052192	
3.85862	  0.082944	  0.102578	  0.050822	
3.89189	  0.081915	  0.103926	  0.049523	
3.92515	  0.081652	  0.106225	  0.048688	
3.95842	  0.082053	  0.108949	  0.048610	
3.99168	  0.083029	  0.111493	  0.049291	
4.02494	  0.084539	  0.113457	  0.050409	
4.05821	  0.086509	  0.114836	  0.051488	
4.09147	  0.088734	  0.115962	  0.052129	
4.12474	  0.090867	  0.117197	  0.052179	
4.158	  0.092550	  0.118610	  0.051729	
4.19126	  0.093560	  0.119914	  0.051001	
4.22453	  0.093899	  0.120773	  0.050230	
4.25779	  0.093780	  0.121192	  0.049663	
4.29106	  0.093580	  0.121604	  0.049669	
4.32432	  0.093784	  0.122520	  0.050885	
4.35758	  0.094917	  0.124045	  0.054278	
4.39085	  0.097445	  0.125732	  0.061105	
4.42411	  0.101722	  0.126926	  0.072723	
4.45738	  0.107959	  0.127299	  0.090209	
4.49064	  0.116134	  0.127122	  0.113827	
4.5239	  0.125786	  0.127034	  0.142569	
4.55717	  0.135917	  0.127535	  0.174130	
4.59043	  0.145312	  0.128633	  0.205494	
4.6237	  0.153278	  0.129972	  0.233829	
4.65696	  0.160202	  0.131268	  0.257141	
4.69022	  0.167285	  0.132616	  0.274398	
4.72349	  0.175512	  0.134365	  0.285379	
4.75675	  0.184744	  0.136746	  0.290657	
4.79002	  0.193826	  0.139642	  0.291724	
4.82328	  0.201644	  0.142741	  0.290919	
4.85654	  0.208068	  0.145864	  0.290924	
4.88981	  0.213817	  0.149135	  0.294100	
4.92307	  0.219481	  0.152820	  0.302077	
4.95634	  0.224836	  0.157017	  0.315603	
4.9896	  0.229218	  0.161511	  0.334229	
5.02286	  0.232439	  0.165925	  0.355702	
5.05613	  0.235131	  0.169974	  0.375763	
5.08939	  0.238133	  0.173552	  0.389238	
5.12266	  0.241665	  0.176590	  0.392289	
5.15592	  0.245195	  0.178904	  0.384332	
5.18918	  0.248032	  0.180241	  0.368128	
5.22245	  0.249985	  0.180488	  0.347985	
5.25571	  0.251505	  0.179797	  0.327532	
5.28898	  0.253306	  0.178505	  0.308652	
5.32224	  0.255869	  0.176989	  0.291928	
5.3555	  0.259200	  0.175649	  0.277653	
5.38877	  0.262958	  0.174975	  0.266324	
5.42203	  0.266736	  0.175473	  0.258277	
5.4553	  0.270247	  0.177398	  0.253022	
5.48856	  0.273348	  0.180509	  0.249041	
5.52182	  0.275975	  0.184104	  0.244425	
5.55509	  0.278145	  0.187364	  0.238055	
5.58835	  0.280017	  0.189771	  0.230506	
5.62162	  0.281953	  0.191315	  0.224003	
5.65488	  0.284347	  0.192353	  0.221406	
5.68814	  0.287239	  0.193319	  0.224956	
5.72141	  0.290107	  0.194538	  0.235495	
5.75467	  0.292258	  0.196288	  0.252374	
5.78794	  0.293543	  0.198867	  0.273721	
5.8212	  0.294578	  0.202486	  0.296834	
5.85446	  0.296057	  0.207032	  0.318700	
5.88773	  0.297830	  0.212005	  0.336699	
5.92099	  0.298824	  0.216742	  0.349254	
5.95426	  0.297996	  0.220751	  0.356075	
5.98752	  0.295302	  0.223841	  0.358023	
6.02078	  0.291711	  0.226004	  0.356894	
6.05405	  0.288335	  0.227217	  0.355152	
6.08731	  0.285705	  0.227382	  0.355215	
6.12058	  0.283782	  0.226420	  0.358199	
6.15384	  0.282374	  0.224442	  0.363029	
6.1871	  0.281335	  0.221874	  0.366981	
6.22037	  0.280467	  0.219378	  0.367566	
6.25363	  0.279498	  0.217552	  0.364296	
6.2869	  0.278275	  0.216577	  0.358862	
6.32016	  0.276891	  0.216128	  0.353748	
6.35342	  0.275523	  0.215622	  0.350572	
6.38669	  0.274175	  0.214592	  0.349310	
6.41995	  0.272651	  0.212895	  0.348506	
6.45322	  0.270804	  0.210691	  0.345985	
6.48648	  0.268831	  0.208307	  0.339828	
6.51974	  0.267345	  0.206120	  0.329485	
6.55301	  0.267136	  0.204474	  0.316448	
6.58627	  0.268751	  0.203645	  0.303703	
6.61954	  0.272181	  0.203861	  0.294092	
6.6528	  0.276881	  0.205340	  0.288868	
6.68606	  0.282038	  0.208268	  0.287634	
6.71933	  0.286846	  0.212683	  0.289397	
6.75259	  0.290571	  0.218279	  0.293288	
6.78586	  0.292556	  0.224268	  0.298184	
6.81912	  0.292373	  0.229524	  0.302048	
6.85238	  0.290047	  0.233100	  0.302273	
6.88565	  0.286094	  0.234825	  0.297101	
6.91891	  0.281329	  0.235431	  0.286803	
6.95218	  0.276674	  0.235993	  0.273480	
6.98544	  0.273113	  0.237103	  0.259682	
7.0187	  0.271603	  0.238520	  0.247060	
7.05197	  0.272794	  0.239519	  0.235964	
7.08523	  0.276721	  0.239533	  0.225970	
7.1185	  0.282782	  0.238506	  0.216594	
7.15176	  0.290067	  0.236781	  0.207605	
7.18502	  0.297747	  0.234811	  0.198957	
7.21829	  0.305201	  0.233020	  0.190730	
7.25155	  0.311844	  0.231881	  0.183233	
7.28482	  0.316883	  0.231972	  0.177021	
7.31808	  0.319331	  0.233742	  0.172646	
7.35134	  0.318392	  0.237137	  0.170284	
7.38461	  0.314035	  0.241471	  0.169557	
7.41787	  0.307254	  0.245809	  0.169631	
7.45114	  0.299708	  0.249550	  0.169480	
7.4844	  0.292933	  0.252704	  0.168219	
7.51766	  0.287709	  0.255614	  0.165462	
7.55093	  0.284002	  0.258444	  0.161529	
7.58419	  0.281351	  0.260890	  0.157333	
7.61746	  0.279266	  0.262298	  0.153957	
7.65072	  0.277349	  0.262103	  0.152205	
7.68398	  0.275244	  0.260340	  0.152409	
7.71725	  0.272678	  0.257939	  0.154474	
7.75051	  0.269636	  0.256492	  0.158001	
7.78378	  0.266457	  0.257446	  0.162392	
7.81704	  0.263658	  0.261102	  0.166952	
7.8503	  0.261592	  0.266182	  0.170976	
7.88357	  0.260197	  0.270423	  0.173782	
7.91683	  0.259037	  0.271850	  0.174745	
7.9501	  0.257553	  0.269768	  0.173455	
7.98336	  0.255380	  0.264788	  0.169969	
8.01662	  0.252502	  0.258022	  0.164967	
8.04989	  0.249165	  0.250309	  0.159583	
8.08315	  0.245651	  0.242098	  0.154982	
8.11642	  0.242176	  0.233877	  0.151965	
8.14968	  0.239038	  0.226547	  0.150837	
8.18294	  0.236824	  0.221332	  0.151577	
8.21621	  0.236319	  0.219298	  0.154119	
8.24947	  0.238039	  0.220824	  0.158452	
8.28274	  0.241740	  0.225348	  0.164413	
8.316	  0.246426	  0.231619	  0.171383	
8.34926	  0.250932	  0.238393	  0.178220	
8.38253	  0.254546	  0.245127	  0.183582	
8.41579	  0.257032	  0.252030	  0.186433	
8.44906	  0.258155	  0.259290	  0.186441	
8.48232	  0.257440	  0.266214	  0.184042	
8.51558	  0.254645	  0.271244	  0.180204	
8.54885	  0.250402	  0.273011	  0.176027	
8.58211	  0.246115	  0.271421	  0.172387	
8.61538	  0.242990	  0.267625	  0.169772	
8.64864	  0.241183	  0.262864	  0.168261	
8.6819	  0.239992	  0.257407	  0.167523	
8.71517	  0.238877	  0.250727	  0.166818	
8.74843	  0.238237	  0.242680	  0.165139	
8.7817	  0.239163	  0.234363	  0.161642	
8.81496	  0.242539	  0.227715	  0.156163	
8.84822	  0.248406	  0.224299	  0.149450	
8.88149	  0.256133	  0.224494	  0.142888	
8.91475	  0.264999	  0.227678	  0.137928	
8.94802	  0.274527	  0.232965	  0.135625	
8.98128	  0.284321	  0.239674	  0.136500	
9.01454	  0.293820	  0.247292	  0.140513	
9.04781	  0.302337	  0.255258	  0.146917	
9.08107	  0.309323	  0.262900	  0.154160	
9.11434	  0.314473	  0.269569	  0.160278	
9.1476	  0.317634	  0.274848	  0.163855	
9.18086	  0.318775	  0.278738	  0.164915	
9.21413	  0.318145	  0.281736	  0.164935	
9.24739	  0.316266	  0.284704	  0.165871	
9.28066	  0.313562	  0.288424	  0.168940	
9.31392	  0.309949	  0.292992	  0.174065	
9.34718	  0.304967	  0.297493	  0.180189	
9.38045	  0.298553	  0.300392	  0.185963	
9.41371	  0.291711	  0.300510	  0.190225	
9.44698	  0.286246	  0.297856	  0.192168	
9.48024	  0.283586	  0.293606	  0.191455	
9.5135	  0.283805	  0.289214	  0.188437	
9.54677	  0.285876	  0.285462	  0.184211	
9.58003	  0.288843	  0.282215	  0.180275	
9.6133	  0.292564	  0.279007	  0.177850	
9.64656	  0.297250	  0.275818	  0.177320	
9.67982	  0.302558	  0.273361	  0.178150	
9.71309	  0.307498	  0.272684	  0.179288	
9.74635	  0.311240	  0.274533	  0.179694	
9.77962	  0.313616	  0.279045	  0.178705	
9.81288	  0.314540	  0.285978	  0.176164	
9.84614	  0.313193	  0.295066	  0.172399	
9.87941	  0.308416	  0.306070	  0.168110	
9.91267	  0.300260	  0.318603	  0.164167	
9.94594	  0.291029	  0.332151	  0.161341	
9.9792	  0.284361	  0.346330	  0.160096	
10.0125	  0.283019	  0.360842	  0.160559	
10.0457	  0.287366	  0.374863	  0.162652	
10.079	  0.295709	  0.386536	  0.166200	
10.1123	  0.305758	  0.393484	  0.170851	
10.1455	  0.315673	  0.394205	  0.175868	
10.1788	  0.324122	  0.389059	  0.180099	
10.212	  0.330004	  0.379840	  0.182308	
10.2453	  0.332517	  0.368333	  0.181741	
10.2786	  0.331362	  0.355221	  0.178514	
10.3118	  0.326578	  0.340254	  0.173521	
10.3451	  0.318152	  0.323269	  0.167951	
10.3784	  0.306108	  0.304969	  0.162779	
10.4116	  0.291186	  0.286825	  0.158554	
10.4449	  0.275311	  0.270330	  0.155486	
10.4782	  0.260992	  0.256277	  0.153599	
10.5114	  0.249974	  0.244451	  0.152754	
10.5447	  0.242372	  0.233770	  0.152551	
10.578	  0.237128	  0.222819	  0.152277	
10.6112	  0.233208	  0.210615	  0.151079	
10.6445	  0.230299	  0.197262	  0.148311	
10.6777	  0.228499	  0.184052	  0.143829	
10.711	  0.227656	  0.172883	  0.138043	
10.7443	  0.227197	  0.165322	  0.131733	
10.7775	  0.226492	  0.161846	  0.125820	
10.8108	  0.225123	  0.161641	  0.121184	
10.8441	  0.222765	  0.163025	  0.118530	
10.8773	  0.219079	  0.164232	  0.118208	
10.9106	  0.214055	  0.164116	  0.119980	
10.9439	  0.208493	  0.162384	  0.122909	
10.9771	  0.203840	  0.159358	  0.125549	
11.0104	  0.201126	  0.155497	  0.126526	
11.0436	  0.199808	  0.151021	  0.125196	
11.0769	  0.197736	  0.145811	  0.121863	
11.1102	  0.192551	  0.139584	  0.117296	
11.1434	  0.183479	  0.132170	  0.111933	
11.1767	  0.172007	  0.123691	  0.105498	
11.21	  0.160835	  0.114539	  0.097408	
11.2432	  0.151991	  0.105223	  0.087557	
11.2765	  0.145609	  0.096227	  0.076782	
